#!OML:ASF F:\VICON\USERDATA\INSTALL\rory3\rory3.ASF
:FULLY-SPECIFIED
:DEGREES
35
root 0.08968816910303992 17.57515982861226 1.7737299350350026 1.6026244769809663 4.705201179354402 1.9719078524746267
lfemur 15.310505851973701 -2.910395710200342 -27.033040071897844
ltibia 27.50866666301434
lfoot 1.7244239431510306 -10.063754583561447
ltoes -11.19036855588033
rfemur -31.542098906395044 6.793660065535332 18.757020267387844
rtibia 22.17856599850687
rfoot -3.046154126165306 -12.044665029080585
rtoes -15.340888125216011
lowerback 11.108962571496402 -1.244299428029459 -3.9281331472426975
upperback -0.320160539513404 -2.0316418153321747 1.0749292949104714
thorax -6.235485020043912 -0.8689227562854531 3.7819940241249546
lowerneck -17.743731118911512 -3.398087254657525 -2.523543096422752
upperneck 17.512195903986697 -4.365286735105059 2.9120474714835654
head 8.571486913463664 -1.9747447520197616 0.9240398849261009
lclavicle -1.6731280876028964e-15 -3.590438758213748e-15
lhumerus -22.61200755910224 -10.57561776753898 87.92470686295808
lradius 74.1351984766161
lwrist 24.4878731264114
lhand -31.952087741191086 12.32463059149933
lfingers 7.125019999999999
lthumb -5.656865973521668 41.70339270722756
rclavicle -1.6759896078031012e-15 -3.5924361117438744e-15
rhumerus -47.67935350076276 -11.151687232876125 -84.42330166607296
rradius 63.18283526143632
rwrist -2.5670476083562903
rhand -17.74857422596402 30.56640021311973
rfingers 7.125019999999999
rthumb 8.00454832897534 0.5542298812806157
36
root 0.003453287978072331 17.448868925359093 2.7117995882179065 1.345118049008835 4.772418889930213 1.5453422803833785
lfemur 15.30134549045951 -4.070977898805594 -26.055859981261534
ltibia 36.15112090463078
lfoot 5.333463054914993 -13.27125559596907
ltoes -12.144733669993634
rfemur -31.737385074021056 2.9473072911294134 21.737930904560393
rtibia 32.70318302266625
rfoot 2.2579552756056955 -8.877106974558693
rtoes -13.012326919866037
lowerback 11.351782612056628 -1.2057178414748217 -3.56950481814857
upperback -0.06459154066462064 -1.9827180990268112 1.4860032287626828
thorax -6.055605673569962 -0.8765910283720935 3.7724328320895513
lowerneck -18.0039908876631 -3.2415678557050627 -2.480559568598741
upperneck 17.556308996043466 -4.084707837131736 2.6418760956179503
head 8.59184038282637 -1.8677545401755293 0.871701176929623
lclavicle -1.6732411848800751e-15 -3.590516951002362e-15
lhumerus -23.084321601890867 -10.102699088312901 88.2592696691068
lradius 75.24095230560071
lwrist 24.804711572421752
lhand -32.593890479627234 11.645995602641378
lfingers 7.125019999999999
lthumb -6.26067362259227 41.123491732572035
rclavicle -1.6760890653379142e-15 -3.592506406906153e-15
rhumerus -49.11407367532793 -13.568333843480454 -81.90230750163622
rradius 60.05619104941253
rwrist 0.5472696867709947
rhand -18.136847521256655 30.141916508207753
rfingers 7.125019999999999
rthumb 7.544710414488613 0.08467722371512182
37
root -0.08573668257489012 17.658439319671025 3.6877614600320117 0.9774709628824899 5.39922291178978 0.6041194590366827
lfemur 12.13947169686196 -4.751972483826311 -23.930595903457153
ltibia 49.186566830408296
lfoot 16.906919155195613 -16.782147080183634
ltoes -7.320720200748932
rfemur -29.94448969433727 2.6951634235128203 23.89669129224534
rtibia 38.0940349251176
rfoot 4.460026652352838 -5.85590963068206
rtoes -1.859574011586262
lowerback 11.304320357675214 -1.3767137851180744 -2.5123507924662327
upperback -0.1822558016539409 -2.0742788222412525 2.10302832024264
thorax -6.006246336550726 -0.9352837134184753 3.613647185268092
lowerneck -17.922608282645715 -3.0522206493885666 -2.4400536854164567
upperneck 18.071603364766545 -3.6996157123769615 2.1110519346196046
head 8.705452574471813 -1.7404610576298418 0.7366934000309207
lclavicle -1.673377005465981e-15 -3.590613112149758e-15
lhumerus -25.17739285110401 -8.984193678448786 88.80137721109571
lradius 75.7011793295441
lwrist 24.64162567883255
lhand -32.42402193777532 11.698772349861928
lfingers 7.125019999999999
lthumb -6.1640372488283255 41.285198088405636
rclavicle -1.674653345863103e-15 -3.591491145683731e-15
rhumerus -50.81469744294832 -16.156045802607387 -78.79539084025613
rradius 56.97620050519078
rwrist 4.347175010684978
rhand -18.29301704696849 30.07295800835993
rfingers 7.125019999999999
rthumb 7.496744349096948 0.3969177620212724
38
root -0.1701064402739598 17.82053595971826 4.26443402403952 0.7006311613426187 4.597107405675774 -0.7484383050578363
lfemur 6.2182238412538275 -3.2160266783674873 -20.959002967419455
ltibia 64.38353500363041
lfoot 28.297222069902023 -20.700426057359007
ltoes 3.347404859546087
rfemur -26.718509100155025 2.8708899780330377 26.940943241409954
rtibia 41.28299255795087
rfoot 2.6915029675854756 -3.9324759492849517
rtoes 11.139053932012146
lowerback 11.43090217206481 -1.1802865296764908 -1.2849777217205478
upperback -0.3589413004304779 -1.6632616419913313 2.6829592078162667
thorax -6.2160062892304335 -0.7778900781589062 3.2744018220248066
lowerneck -17.557999088107007 -2.9674673728122203 -2.396203728732571
upperneck 18.460790493968517 -3.5198781670507433 1.8332351565184166
head 8.739365868944217 -1.6766611996389917 0.672109470666777
lclavicle -1.6738265876635885e-15 -3.590935143232199e-15
lhumerus -28.546729512772984 -7.9242262508132555 89.55915575137486
lradius 75.29937302827837
lwrist 24.057449331965703
lhand -31.314523984485763 11.699010559374614
lfingers 7.125019999999999
lthumb -5.031967968395909 41.42653980172453
rclavicle -1.6734597210807194e-15 -3.590647194613476e-15
rhumerus -52.362469689689476 -17.7853751093734 -76.5603707921181
rradius 55.20155021928555
rwrist 7.172866464267159
rhand -18.206770187705253 30.109080144590056
rfingers 7.125019999999999
rthumb 7.67266031673749 0.4246303839504666
39
root -0.2555136725079794 18.234294871163126 4.66031480909327 -0.0692452700733901 4.490061736683062 -2.200390496806557
lfemur -1.6390623888048506 -1.751906432534979 -17.612396359529328
ltibia 78.72545641555888
lfoot 30.806383422476255 -17.92599374422437
ltoes 3.6428752339816945
rfemur -21.82540504385973 3.0328174455858226 29.820916105382622
rtibia 40.588465658400246
rfoot 0.6561508065839297 -4.566562713341028
rtoes 14.361444194891332
lowerback 11.993106307116697 -1.08851690223862 0.2676761292074473
upperback -0.3213183373372714 -1.3367254931468662 3.0554378614160638
thorax -6.481837961070999 -0.6286525883215788 2.690356678039316
lowerneck -17.197824280823195 -3.057099405604512 -2.3446703395563713
upperneck 18.862936918020054 -3.6858308982092463 1.888549425553331
head 8.758355779894291 -1.7569740012486212 0.6828026192974661
lclavicle -1.6733744926656119e-15 -3.590616193635175e-15
lhumerus -31.35773254058614 -7.844548540427061 90.34764240781905
lradius 74.68875223174526
lwrist 23.342525783493272
lhand -30.476200597894753 11.745316378900593
lfingers 7.125019999999999
lthumb -4.390613083159723 41.24658079327094
rclavicle -1.6743174272337589e-15 -3.591253764977817e-15
rhumerus -51.706782676966476 -16.38359436231048 -77.94510766220556
rradius 55.84430400877717
rwrist 5.90296107872515
rhand -18.087801646060804 30.2907540878391
rfingers 7.125019999999999
rthumb 7.852741448887873 0.5302038656529732
